<svg xmlns="http://www.w3.org/2000/svg" viewBox="0 0 346 838">
<path d="M 135,830 Z" fill="black"/>
<path d="M 118,829 Z" fill="black"/>
<path d="M 172,813 Z" fill="black"/>
<path d="M 171,806 Z" fill="black"/>
<path d="M 170,803 Z" fill="black"/>
<path d="M 303,800 Z" fill="black"/>
<path d="M 66,797 Z" fill="black"/>
<path d="M 283,794 Z" fill="black"/>
<path d="M 153,794 Z" fill="black"/>
<path d="M 261,773 L 261,774 Z" fill="black"/>
<path d="M 126,754 Z" fill="black"/>
<path d="M 126,751 Z" fill="black"/>
<path d="M 252,737 L 252,738 Z" fill="black"/>
<path d="M 119,734 Z" fill="black"/>
<path d="M 253,729 Z" fill="black"/>
<path d="M 197,700 Z" fill="black"/>
<path d="M 258,682 L 258,683 Z" fill="black"/>
<path d="M 64,671 Z" fill="black"/>
<path d="M 259,665 Z" fill="black"/>
<path d="M 193,646 Z" fill="black"/>
<path d="M 130,639 Z" fill="black"/>
<path d="M 131,625 L 131,626 Z" fill="black"/>
<path d="M 264,606 L 264,607 Z" fill="black"/>
<path d="M 76,601 Z" fill="black"/>
<path d="M 266,579 L 266,580 Z" fill="black"/>
<path d="M 265,572 L 265,573 Z" fill="black"/>
<path d="M 264,565 L 264,567 Z" fill="black"/>
<path d="M 84,560 Z" fill="black"/>
<path d="M 263,559 Z" fill="black"/>
<path d="M 260,539 L 260,541 Z" fill="black"/>
<path d="M 259,533 Z" fill="black"/>
<path d="M 258,525 Z" fill="black"/>
<path d="M 165,520 Z" fill="black"/>
<path d="M 255,505 Z" fill="black"/>
<path d="M 248,470 L 248,471 Z" fill="black"/>
<path d="M 246,462 Z" fill="black"/>
<path d="M 84,396 Z" fill="black"/>
<path d="M 234,391 Z" fill="black"/>
<path d="M 48,391 Z" fill="black"/>
<path d="M 233,387 Z" fill="black"/>
<path d="M 232,382 Z" fill="black"/>
<path d="M 230,368 Z" fill="black"/>
<path d="M 228,356 L 228,357 Z" fill="black"/>
<path d="M 227,350 Z" fill="black"/>
<path d="M 245,325 Z" fill="black"/>
<path d="M 229,320 Z" fill="black"/>
<path d="M 3,237 Z" fill="black"/>
<path d="M 238,218 Z" fill="black"/>
<path d="M 227,196 Z" fill="black"/>
<path d="M 1,189 Z" fill="black"/>
<path d="M 208,166 Z" fill="black"/>
<path d="M 209,164 Z" fill="black"/>
<path d="M 325,154 Z" fill="black"/>
<path d="M 308,141 Z" fill="black"/>
<path d="M 190,140 Z" fill="black"/>
<path d="M 40,135 Z" fill="black"/>
<path d="M 46,134 Z" fill="black"/>
<path d="M 204,131 Z" fill="black"/>
<path d="M 201,131 Z" fill="black"/>
<path d="M 196,131 Z" fill="black"/>
<path d="M 73,131 Z" fill="black"/>
<path d="M 73,85 Z" fill="black"/>
<path d="M 109,53 Z" fill="black"/>
<path d="M 226,51 Z" fill="black"/>
<path d="M 224,41 Z" fill="black"/>
<path d="M 227,36 Z" fill="black"/>
<path d="M 197,6 Z" fill="black"/>
<path d="M 195,5 Z" fill="black"/>
<path d="M 161,2 L 160,3 L 154,3 L 153,4 L 150,4 L 149,5 L 148,5 L 147,6 L 145,6 L 144,7 L 143,7 L 142,8 L 141,8 L 140,9 L 139,9 L 137,11 L 136,11 L 132,15 L 131,15 L 130,16 L 130,17 L 125,22 L 125,23 L 123,25 L 123,26 L 122,27 L 122,28 L 121,29 L 121,30 L 120,31 L 120,32 L 119,33 L 119,34 L 118,35 L 118,36 L 117,37 L 117,39 L 116,40 L 116,41 L 115,42 L 115,44 L 114,45 L 114,46 L 113,47 L 113,49 L 112,50 L 112,54 L 111,55 L 109,55 L 108,56 L 104,56 L 103,57 L 101,57 L 100,58 L 99,58 L 98,59 L 97,59 L 96,60 L 95,60 L 93,62 L 92,62 L 82,72 L 82,73 L 80,75 L 80,76 L 78,78 L 78,79 L 77,80 L 77,81 L 76,82 L 76,84 L 75,85 L 75,86 L 74,87 L 74,90 L 73,91 L 73,95 L 72,96 L 72,114 L 73,115 L 73,119 L 74,120 L 74,123 L 75,124 L 75,125 L 76,126 L 76,128 L 77,129 L 77,130 L 78,131 L 78,132 L 77,133 L 69,133 L 68,134 L 58,134 L 57,135 L 50,135 L 49,136 L 44,136 L 43,137 L 39,137 L 38,138 L 36,138 L 35,139 L 32,139 L 31,140 L 30,140 L 29,141 L 27,141 L 26,142 L 25,142 L 23,144 L 22,144 L 14,152 L 14,153 L 13,154 L 13,155 L 11,157 L 11,158 L 10,159 L 10,160 L 9,161 L 9,163 L 8,164 L 8,165 L 7,166 L 7,168 L 6,169 L 6,172 L 5,173 L 5,177 L 4,178 L 4,184 L 3,185 L 3,200 L 4,201 L 4,204 L 5,205 L 5,207 L 11,213 L 11,216 L 10,217 L 10,220 L 9,221 L 9,227 L 8,228 L 8,231 L 7,232 L 7,235 L 6,236 L 6,237 L 3,240 L 2,240 L 2,244 L 1,245 L 1,271 L 0,272 L 0,290 L 1,291 L 1,312 L 2,313 L 2,322 L 3,323 L 3,331 L 4,332 L 4,337 L 5,338 L 5,340 L 7,342 L 7,343 L 8,344 L 8,346 L 9,347 L 9,348 L 10,349 L 10,350 L 11,351 L 11,353 L 12,354 L 12,358 L 13,359 L 13,361 L 14,362 L 14,363 L 15,364 L 15,365 L 18,368 L 18,369 L 25,376 L 26,376 L 30,380 L 31,380 L 33,382 L 34,382 L 36,384 L 37,384 L 38,385 L 39,385 L 40,386 L 41,386 L 42,387 L 44,387 L 45,388 L 47,388 L 48,389 L 50,389 L 51,390 L 55,390 L 56,391 L 61,391 L 62,392 L 70,392 L 71,393 L 86,393 L 87,394 L 87,395 L 86,396 L 86,398 L 85,399 L 85,401 L 84,402 L 84,404 L 83,405 L 83,408 L 82,409 L 82,414 L 81,415 L 81,432 L 82,433 L 82,439 L 83,440 L 83,444 L 84,445 L 84,449 L 85,450 L 85,452 L 86,453 L 86,456 L 87,457 L 87,459 L 88,460 L 88,484 L 87,485 L 87,557 L 86,558 L 86,569 L 85,570 L 85,576 L 84,577 L 84,581 L 83,582 L 83,586 L 82,587 L 82,590 L 81,591 L 81,593 L 80,594 L 80,596 L 79,597 L 79,600 L 78,601 L 78,603 L 77,604 L 77,606 L 76,607 L 76,610 L 75,611 L 75,613 L 74,614 L 74,617 L 73,618 L 73,620 L 72,621 L 72,624 L 71,625 L 71,629 L 70,630 L 70,633 L 69,634 L 69,638 L 68,639 L 68,645 L 67,646 L 67,652 L 66,653 L 66,673 L 67,674 L 67,686 L 68,687 L 68,697 L 69,698 L 69,708 L 70,709 L 70,717 L 71,718 L 71,726 L 72,727 L 72,734 L 73,735 L 73,740 L 71,742 L 70,742 L 69,743 L 69,751 L 70,752 L 70,759 L 71,760 L 71,768 L 72,769 L 72,782 L 71,783 L 71,786 L 70,787 L 70,790 L 69,791 L 69,795 L 68,796 L 68,802 L 67,803 L 67,812 L 66,813 L 66,819 L 67,820 L 67,832 L 68,833 L 68,834 L 69,835 L 70,835 L 71,836 L 76,836 L 77,837 L 85,837 L 86,836 L 96,836 L 97,835 L 102,835 L 103,834 L 105,834 L 106,833 L 107,833 L 108,832 L 108,831 L 109,830 L 109,829 L 110,828 L 110,827 L 111,826 L 115,826 L 116,827 L 127,827 L 128,828 L 140,828 L 141,827 L 149,827 L 150,826 L 153,826 L 154,825 L 156,825 L 157,824 L 159,824 L 160,823 L 161,823 L 162,822 L 163,822 L 165,820 L 166,820 L 168,818 L 168,817 L 169,816 L 169,814 L 170,813 L 170,811 L 169,810 L 169,805 L 168,804 L 168,803 L 166,801 L 165,801 L 163,799 L 162,799 L 161,798 L 159,798 L 158,797 L 155,797 L 154,796 L 149,796 L 144,791 L 143,791 L 140,788 L 139,788 L 138,787 L 137,787 L 135,785 L 134,785 L 126,777 L 126,776 L 125,775 L 125,774 L 123,772 L 123,760 L 124,759 L 124,743 L 121,740 L 117,740 L 116,739 L 116,736 L 117,735 L 117,727 L 118,726 L 118,719 L 119,718 L 119,712 L 120,711 L 120,704 L 121,703 L 121,696 L 122,695 L 122,688 L 123,687 L 123,680 L 124,679 L 124,671 L 125,670 L 125,661 L 126,660 L 126,651 L 127,650 L 127,640 L 128,639 L 128,628 L 129,627 L 129,621 L 130,620 L 130,617 L 131,616 L 131,614 L 132,613 L 132,612 L 133,611 L 133,610 L 134,609 L 134,608 L 136,606 L 136,605 L 137,604 L 137,603 L 138,602 L 138,601 L 139,600 L 139,598 L 140,597 L 140,596 L 141,595 L 141,592 L 142,591 L 142,588 L 143,587 L 143,584 L 144,583 L 144,580 L 145,579 L 145,577 L 146,576 L 146,575 L 147,574 L 147,572 L 148,571 L 148,569 L 149,568 L 149,567 L 150,566 L 150,564 L 151,563 L 151,561 L 152,560 L 152,557 L 153,556 L 153,554 L 154,553 L 154,550 L 155,549 L 155,547 L 156,546 L 156,543 L 157,542 L 157,540 L 158,539 L 158,536 L 159,535 L 159,533 L 160,532 L 160,529 L 161,528 L 161,525 L 162,524 L 162,522 L 163,521 L 163,517 L 164,516 L 165,516 L 166,517 L 166,518 L 167,519 L 167,520 L 168,521 L 168,522 L 169,523 L 169,524 L 170,525 L 170,526 L 171,527 L 171,528 L 173,530 L 173,531 L 174,532 L 174,533 L 175,534 L 175,535 L 176,536 L 176,537 L 177,538 L 177,539 L 179,541 L 179,542 L 180,543 L 180,544 L 181,545 L 181,546 L 182,547 L 182,548 L 183,549 L 183,550 L 184,551 L 184,552 L 185,553 L 185,554 L 187,556 L 187,557 L 188,558 L 188,559 L 189,560 L 189,561 L 190,562 L 190,563 L 191,564 L 191,565 L 192,566 L 192,567 L 193,568 L 193,569 L 194,570 L 194,571 L 195,572 L 195,573 L 196,574 L 196,575 L 198,577 L 198,578 L 199,579 L 199,580 L 200,581 L 200,583 L 201,584 L 201,585 L 202,586 L 202,587 L 203,588 L 203,589 L 204,590 L 204,592 L 205,593 L 205,595 L 206,596 L 206,600 L 205,601 L 205,603 L 204,604 L 204,606 L 203,607 L 203,609 L 202,610 L 202,612 L 201,613 L 201,616 L 200,617 L 200,619 L 199,620 L 199,624 L 198,625 L 198,628 L 197,629 L 197,635 L 196,636 L 196,643 L 195,644 L 195,672 L 196,673 L 196,679 L 197,680 L 197,687 L 198,688 L 198,694 L 199,695 L 199,701 L 200,702 L 200,709 L 201,710 L 201,718 L 202,719 L 202,728 L 203,729 L 203,738 L 204,739 L 204,742 L 203,743 L 201,743 L 199,745 L 199,755 L 200,756 L 200,762 L 201,763 L 201,770 L 202,771 L 202,777 L 203,778 L 203,781 L 202,782 L 202,786 L 201,787 L 201,789 L 200,790 L 200,793 L 199,794 L 199,798 L 198,799 L 198,805 L 197,806 L 197,831 L 198,832 L 198,833 L 199,833 L 200,834 L 201,834 L 202,835 L 204,835 L 205,836 L 207,836 L 208,837 L 237,837 L 238,836 L 238,835 L 239,834 L 239,833 L 240,832 L 241,832 L 242,833 L 245,833 L 246,834 L 250,834 L 251,835 L 257,835 L 258,836 L 287,836 L 288,835 L 293,835 L 294,834 L 297,834 L 298,833 L 299,833 L 300,832 L 302,832 L 303,831 L 304,831 L 305,830 L 306,830 L 307,829 L 308,829 L 309,828 L 310,828 L 316,822 L 316,810 L 315,809 L 315,808 L 314,807 L 314,806 L 313,805 L 312,805 L 311,804 L 310,804 L 309,803 L 307,803 L 306,802 L 295,802 L 294,801 L 293,802 L 291,802 L 288,799 L 287,799 L 285,797 L 284,797 L 283,796 L 282,796 L 281,795 L 280,795 L 279,794 L 278,794 L 277,793 L 276,793 L 274,791 L 273,791 L 271,789 L 270,789 L 267,786 L 266,786 L 264,784 L 264,783 L 262,781 L 262,780 L 259,777 L 259,776 L 258,775 L 259,774 L 259,744 L 258,743 L 256,743 L 255,742 L 250,742 L 249,741 L 249,740 L 250,739 L 250,731 L 251,730 L 251,722 L 252,721 L 252,713 L 253,712 L 253,704 L 254,703 L 254,694 L 255,693 L 255,683 L 256,682 L 256,671 L 257,670 L 257,656 L 258,655 L 258,636 L 259,635 L 259,622 L 260,621 L 260,615 L 261,614 L 261,609 L 262,608 L 262,603 L 263,602 L 263,597 L 264,596 L 264,578 L 263,577 L 263,571 L 262,570 L 262,565 L 261,564 L 261,559 L 260,558 L 260,552 L 259,551 L 259,547 L 258,546 L 258,539 L 257,538 L 257,531 L 256,530 L 256,523 L 255,522 L 255,517 L 254,516 L 254,510 L 253,509 L 253,504 L 252,503 L 252,499 L 251,498 L 251,493 L 250,492 L 250,488 L 249,487 L 249,483 L 248,482 L 248,478 L 247,477 L 247,474 L 246,473 L 246,470 L 245,469 L 245,466 L 244,465 L 244,462 L 243,461 L 243,458 L 242,457 L 242,455 L 241,454 L 241,451 L 240,450 L 240,448 L 239,447 L 239,445 L 238,444 L 238,442 L 237,441 L 237,438 L 236,437 L 236,435 L 235,434 L 235,432 L 234,431 L 234,429 L 233,428 L 233,426 L 232,425 L 232,422 L 231,421 L 231,419 L 230,418 L 230,416 L 229,415 L 229,413 L 228,412 L 228,410 L 227,409 L 228,408 L 230,408 L 234,404 L 233,403 L 233,397 L 232,396 L 232,391 L 231,390 L 231,386 L 230,385 L 230,380 L 229,379 L 229,374 L 228,373 L 228,368 L 227,367 L 227,362 L 226,361 L 226,355 L 225,354 L 225,348 L 224,347 L 224,341 L 223,340 L 224,339 L 224,330 L 225,329 L 225,317 L 226,316 L 227,316 L 229,318 L 230,318 L 231,319 L 232,319 L 233,320 L 235,320 L 236,321 L 238,321 L 239,322 L 243,322 L 244,323 L 246,323 L 247,322 L 252,322 L 253,321 L 255,321 L 256,320 L 257,320 L 258,319 L 259,319 L 277,301 L 277,300 L 281,296 L 281,295 L 284,292 L 284,291 L 287,288 L 287,287 L 289,285 L 289,284 L 291,282 L 291,281 L 293,279 L 293,278 L 295,276 L 295,275 L 297,273 L 297,272 L 300,269 L 300,268 L 302,266 L 302,265 L 303,264 L 303,263 L 304,262 L 304,261 L 305,260 L 305,259 L 306,258 L 306,257 L 307,256 L 307,253 L 306,252 L 306,251 L 305,250 L 305,249 L 304,248 L 304,247 L 305,246 L 305,245 L 307,243 L 307,242 L 308,241 L 308,240 L 310,238 L 310,237 L 312,235 L 312,234 L 314,232 L 314,231 L 315,230 L 315,229 L 317,227 L 317,226 L 318,225 L 318,224 L 319,223 L 319,222 L 320,221 L 320,220 L 321,219 L 321,217 L 322,216 L 322,215 L 323,214 L 323,213 L 324,212 L 324,210 L 325,209 L 325,208 L 326,207 L 326,206 L 327,205 L 327,203 L 328,202 L 329,202 L 330,203 L 333,203 L 338,198 L 338,197 L 341,194 L 341,193 L 344,190 L 344,189 L 345,188 L 345,174 L 344,173 L 344,172 L 343,171 L 343,170 L 341,168 L 341,167 L 340,167 L 338,165 L 337,165 L 336,164 L 335,164 L 332,161 L 332,160 L 329,157 L 327,157 L 326,156 L 325,156 L 324,157 L 321,154 L 321,152 L 319,150 L 316,150 L 315,149 L 314,150 L 312,150 L 311,149 L 311,147 L 310,146 L 310,145 L 309,144 L 308,144 L 307,143 L 302,143 L 301,144 L 297,144 L 289,136 L 289,135 L 287,133 L 286,133 L 285,132 L 283,132 L 282,133 L 280,133 L 276,137 L 275,137 L 262,150 L 262,151 L 260,153 L 260,154 L 259,155 L 259,156 L 258,157 L 258,158 L 257,159 L 257,166 L 258,167 L 258,168 L 259,168 L 266,175 L 267,175 L 269,177 L 269,178 L 270,179 L 269,180 L 269,182 L 268,183 L 268,185 L 267,186 L 267,187 L 265,189 L 265,190 L 264,191 L 264,192 L 261,195 L 261,196 L 255,202 L 255,203 L 245,213 L 245,214 L 238,221 L 237,221 L 236,220 L 236,218 L 235,217 L 235,216 L 234,215 L 234,214 L 233,213 L 233,212 L 232,211 L 232,210 L 231,209 L 231,208 L 230,207 L 230,206 L 229,205 L 229,204 L 228,203 L 228,202 L 227,201 L 227,200 L 226,199 L 226,198 L 225,197 L 225,196 L 223,194 L 223,193 L 222,192 L 222,191 L 220,189 L 220,188 L 219,187 L 219,186 L 217,184 L 217,183 L 215,181 L 215,180 L 212,177 L 212,176 L 209,173 L 209,172 L 205,168 L 205,167 L 206,166 L 206,165 L 207,164 L 207,163 L 208,162 L 208,156 L 205,153 L 205,152 L 202,149 L 201,149 L 199,147 L 198,147 L 196,145 L 195,145 L 194,144 L 193,144 L 192,143 L 191,143 L 190,142 L 188,142 L 186,140 L 187,139 L 187,137 L 188,136 L 188,134 L 193,129 L 210,129 L 211,128 L 214,128 L 215,127 L 216,127 L 219,124 L 219,123 L 220,122 L 220,112 L 221,111 L 221,110 L 222,109 L 222,104 L 224,102 L 224,99 L 223,98 L 223,95 L 226,92 L 229,92 L 232,89 L 232,84 L 230,82 L 230,81 L 223,74 L 223,73 L 222,72 L 222,65 L 223,64 L 223,62 L 224,61 L 224,51 L 223,50 L 223,44 L 222,43 L 222,40 L 224,38 L 224,37 L 225,36 L 225,31 L 224,30 L 224,29 L 222,27 L 222,26 L 217,21 L 216,21 L 213,18 L 212,18 L 209,15 L 208,15 L 206,13 L 205,13 L 204,12 L 203,12 L 202,11 L 201,11 L 200,10 L 199,10 L 197,8 L 195,8 L 194,7 L 193,7 L 192,6 L 190,6 L 189,5 L 186,5 L 185,4 L 181,4 L 180,3 L 171,3 L 170,2 Z" fill="black"/>
<path d="M 163,0 Z" fill="black"/>
</svg>